 <svg  version="1.0" xmlns="http://www.w3.org/2000/svg"  width="900.000000pt" height="846.000000pt" viewBox="0 0 900.000000 846.000000"  preserveAspectRatio="xMidYMid meet">  <g transform="translate(0.000000,846.000000) scale(0.100000,-0.100000)" fill="#ffffff" stroke="none"> <path d="M5356 6512 c-126 -169 -255 -340 -285 -381 -31 -41 -80 -107 -108 -148 -62 -87 -353 -474 -533 -708 -194 -251 -314 -410 -353 -465 -27 -37 -70 -92 -97 -121 l-49 -54 -38 40 c-40 43 -222 278 -313 405 -29 41 -97 129 -149 194 -92 115 -209 266 -629 818 -106 139 -201 262 -210 273 -10 11 -48 61 -86 110 -38 50 -97 124 -131 165 -34 41 -74 94 -90 118 -15 23 -33 42 -40 42 -20 0 -24 -366 -31 -2460 -6 -1838 -7 -1927 -25 -1979 -34 -99 -103 -164 -206 -195 -32 -10 -64 -19 -71 -22 -10 -3 -10 -9 -2 -24 10 -20 19 -20 373 -19 472 2 631 9 635 29 1 10 -24 26 -83 50 -103 42 -155 89 -188 170 l-22 55 -3 1605 c-2 883 0 1620 3 1638 3 18 10 32 14 30 12 -5 94 -106 209 -258 56 -74 148 -194 205 -267 56 -72 131 -169 166 -215 35 -45 85 -108 111 -138 26 -30 78 -98 116 -150 38 -52 104 -140 148 -194 43 -54 95 -122 115 -150 103 -146 200 -256 225 -256 5 0 119 142 235 295 46 60 103 133 126 160 38 46 166 215 624 825 220 293 273 360 283 354 4 -3 8 -734 8 -1625 l0 -1619 23 -9 c34 -14 287 -44 332 -40 l40 4 2 2195 c1 1207 -1 2203 -3 2213 -3 9 -8 17 -12 17 -4 0 -110 -139 -236 -308z"/> <path d="M5180 6724 c-306 -58 -426 -96 -628 -201 -396 -204 -700 -479 -939 -848 -14 -22 -41 -62 -59 -90 -46 -70 -84 -145 -84 -164 0 -9 57 -83 126 -166 69 -82 134 -161 144 -175 17 -22 20 -23 34 -10 8 8 31 58 51 110 20 52 44 111 53 130 35 70 146 257 186 310 64 87 224 266 272 305 24 20 49 42 56 48 30 29 179 138 243 177 121 74 280 142 411 175 6 2 40 44 75 95 62 89 111 156 183 252 20 26 36 52 36 58 0 14 -69 11 -160 -6z"/> <path d="M5745 6718 c-2 -7 -6 -79 -8 -160 -6 -172 -3 -178 79 -178 53 0 188 -32 318 -74 158 -52 259 -128 379 -283 70 -91 96 -151 152 -346 18 -63 41 -73 38 -16 -1 19 -3 198 -5 399 -2 201 -7 371 -11 378 -10 15 -268 140 -362 174 -160 59 -251 82 -394 103 -128 18 -180 19 -186 3z"/> <path d="M3262 4623 c-4 -10 -7 -142 -6 -293 1 -227 5 -298 22 -410 34 -220 66 -342 141 -548 142 -388 466 -812 780 -1020 157 -104 141 -94 276 -161 225 -111 323 -144 615 -204 94 -19 136 -21 405 -21 357 0 438 11 720 95 122 36 212 74 370 155 l120 61 17 119 c9 65 24 178 32 249 9 72 23 187 32 256 19 147 17 173 -11 177 -22 3 -23 2 -78 -133 -63 -150 -162 -298 -285 -422 -98 -98 -198 -147 -411 -203 -80 -21 -314 -50 -401 -50 -183 1 -533 69 -739 144 -56 21 -262 129 -318 167 -138 95 -320 261 -406 369 -28 36 -54 67 -57 70 -54 49 -211 324 -266 466 -17 41 -70 201 -84 249 -23 84 -50 263 -50 341 l0 81 -58 69 c-31 38 -100 123 -152 189 -124 157 -182 225 -192 225 -5 0 -12 -8 -16 -17z"/> </g> </svg> 
