<svg xmlns="http://www.w3.org/2000/svg" viewBox="0 0 160 160" role="img" aria-labelledby="title">
  <title id="title">Monthaven Capital monogram</title>
  <defs>
    <linearGradient id="bg" x1="0" x2="1" y1="0" y2="1">
      <stop offset="0" stop-color="#050914" />
      <stop offset="1" stop-color="#101a30" />
    </linearGradient>
    <radialGradient id="sheen" cx="0.3" cy="0.2" r="1">
      <stop offset="0" stop-color="#f3e8ce" stop-opacity="0.92" />
      <stop offset="1" stop-color="#c8a86a" stop-opacity="0.18" />
    </radialGradient>
  </defs>
  <rect width="160" height="160" rx="28" fill="url(#bg)" />
  <rect x="6" y="6" width="148" height="148" rx="24" fill="none" stroke="#d5b372" stroke-opacity="0.28" stroke-width="3" />
  <path d="M42 118V42h18l20.2 34.3L100.4 42H118v76h-14V76.8l-24.3 39.2h-7.4L56 76.6V118H42z" fill="url(#sheen)" />
  <path d="M118 42v76h-14V76.8l-24.3 39.2h-7.4L56 76.6V118H42" fill="none" stroke="#d5b372" stroke-width="5" stroke-linecap="round" stroke-linejoin="round" />
  <path d="M96 52c-16.6 0-30 13.4-30 30s13.4 30 30 30c9.3 0 17.3-3.6 23.5-10.6l-7.5-7.3c-4.2 4.8-9.1 7.2-16 7.2-11.6 0-21-9.4-21-21s9.4-21 21-21c6.9 0 11.8 2.5 16 7.2l7.5-7.3C113.3 55.6 105.3 52 96 52z" fill="none" stroke="#d5b372" stroke-width="4" stroke-linecap="round" stroke-linejoin="round" />
</svg>
